<?xml version="1.0" standalone="no"?>
<!DOCTYPE svg PUBLIC "-//W3C//DTD SVG 20010904//EN"
 "http://www.w3.org/TR/2001/REC-SVG-20010904/DTD/svg10.dtd">
<svg version="1.0" xmlns="http://www.w3.org/2000/svg"
 width="649.000000pt" height="426.000000pt" viewBox="0 0 649.000000 426.000000"
 preserveAspectRatio="xMidYMid meet">

<g transform="translate(0.000000,426.000000) scale(0.100000,-0.100000)"
fill="#000000" stroke="none">
<path d="M3267 3464 c-4 -4 -7 -121 -7 -261 0 -221 -2 -253 -15 -253 -9 0 -27
-11 -40 -25 l-25 -24 0 -245 0 -246 -22 -4 c-13 -3 -32 -7 -43 -8 -19 -3 -20
-13 -25 -273 -6 -303 2 -282 -86 -238 -192 95 -314 299 -314 525 0 164 52 290
170 409 41 42 100 89 130 105 51 27 79 64 48 64 -26 0 -142 -75 -194 -126
-208 -202 -253 -524 -107 -773 207 -352 696 -417 983 -131 118 118 178 254
187 420 10 186 -48 330 -187 470 -106 106 -230 176 -207 117 3 -7 35 -31 72
-53 262 -153 360 -495 222 -774 -38 -79 -167 -211 -245 -253 l-52 -28 0 145 0
145 -40 11 -40 11 0 274 0 273 -35 12 -35 12 0 149 c0 156 -7 189 -40 189 -19
0 -20 9 -22 192 -3 180 -8 214 -31 192z m53 -428 c0 -3 -4 -8 -10 -11 -5 -3
-10 -1 -10 4 0 6 5 11 10 11 6 0 10 -2 10 -4z m0 -56 c0 -5 -4 -10 -10 -10 -5
0 -10 5 -10 10 0 6 5 10 10 10 6 0 10 -4 10 -10z m0 -60 c0 -5 -4 -10 -10 -10
-5 0 -10 5 -10 10 0 6 5 10 10 10 6 0 10 -4 10 -10z m-60 -30 c0 -13 -7 -20
-20 -20 -19 0 -27 20 -13 33 13 14 33 6 33 -13z m60 -30 c0 -5 -4 -10 -10 -10
-5 0 -10 5 -10 10 0 6 5 10 10 10 6 0 10 -4 10 -10z m-60 -50 c0 -13 -7 -20
-20 -20 -19 0 -27 20 -13 33 13 14 33 6 33 -13z m60 -10 c0 -5 -4 -10 -10 -10
-5 0 -10 5 -10 10 0 6 5 10 10 10 6 0 10 -4 10 -10z m-60 -70 c0 -13 -7 -20
-20 -20 -13 0 -20 7 -20 20 0 13 7 20 20 20 13 0 20 -7 20 -20z m118 -35 c12
-3 22 -13 22 -21 0 -11 -11 -14 -50 -12 -39 2 -50 7 -50 20 0 27 19 30 78 13z
m-118 -34 c0 -10 -9 -21 -20 -24 -15 -4 -20 0 -20 13 0 17 12 27 33 29 4 1 7
-7 7 -18z m132 -47 c5 -3 8 -12 8 -21 0 -13 -8 -14 -47 -8 -56 8 -57 9 -49 31
5 13 14 15 44 9 20 -4 40 -9 44 -11z m-132 -34 c0 -13 -7 -20 -20 -20 -19 0
-27 20 -13 33 13 14 33 6 33 -13z m121 -40 c10 -6 19 -17 19 -25 0 -12 -10
-13 -47 -8 -56 7 -57 7 -50 28 7 17 49 20 78 5z m-121 -40 c0 -13 -7 -20 -20
-20 -19 0 -27 20 -13 33 13 14 33 6 33 -13z m130 -45 c19 -22 5 -31 -44 -27
-37 3 -46 8 -46 23 0 15 7 19 39 19 22 0 44 -6 51 -15z m-130 -25 c0 -13 -7
-20 -20 -20 -22 0 -28 25 -7 33 22 10 27 7 27 -13z m128 -46 c6 -2 12 -10 12
-19 0 -22 -53 -19 -73 3 -27 30 -4 36 61 16z m-110 -20 c33 -23 29 -46 -6 -33
-18 6 -50 6 -86 1 -46 -7 -59 -6 -63 5 -8 20 -1 23 54 33 72 12 77 11 101 -6z
m96 -54 c27 -10 36 -40 12 -40 -28 0 -46 12 -46 31 0 22 0 22 34 9z m-92 -27
c10 -9 18 -19 18 -22 0 -3 -41 -7 -91 -8 -79 -1 -90 1 -87 15 6 29 131 41 160
15z m103 -57 c26 -19 13 -45 -19 -39 -19 4 -26 11 -26 29 0 27 17 31 45 10z
m-105 -16 c26 -16 -1 -27 -83 -34 -71 -5 -78 -4 -75 11 5 27 124 44 158 23z
m120 -68 c50 -15 66 -23 68 -39 l3 -20 -72 19 c-58 16 -80 18 -106 10 -30 -9
-34 -8 -31 6 3 16 42 42 63 42 6 0 39 -8 75 -18z m-170 -9 c-1 -20 -19 -31
-62 -37 -44 -7 -48 -5 -48 13 0 20 17 27 78 30 17 0 32 -2 32 -6z m176 -70
c48 -13 64 -22 64 -35 0 -22 -4 -22 -66 -3 -58 17 -98 19 -125 5 -28 -15 -25
14 3 34 28 20 45 20 124 -1z m-193 -33 c-4 -5 -26 -10 -48 -12 -31 -2 -40 1
-43 14 -2 13 6 18 35 23 21 4 43 8 48 9 13 4 20 -24 8 -34z m199 -46 c44 -13
58 -21 58 -35 0 -23 5 -23 -60 -3 -32 10 -74 14 -102 12 -52 -5 -60 2 -26 26
28 20 57 20 130 0z m-192 -13 c0 -20 -25 -31 -73 -31 -43 0 -32 33 13 41 57
10 60 10 60 -10z m198 -67 c41 -12 52 -19 52 -35 0 -15 -5 -19 -15 -15 -63 24
-141 37 -162 27 -31 -14 -33 -14 -33 4 0 20 50 45 80 38 14 -2 49 -11 78 -19z
m-198 -14 c0 -11 -6 -20 -12 -20 -7 0 -30 -3 -52 -7 -34 -5 -38 -4 -34 13 2
11 15 21 33 25 54 12 65 10 65 -11z m150 -50 c38 -11 4 -22 -56 -18 -46 3 -47
4 -24 15 29 13 45 14 80 3z m-157 -17 c-7 -2 -19 -2 -25 0 -7 3 -2 5 12 5 14
0 19 -2 13 -5z"/>
<path d="M2110 1572 c-53 -26 -80 -74 -80 -141 0 -97 60 -161 151 -161 86 0
149 68 149 160 0 122 -113 196 -220 142z m130 -70 c25 -31 27 -108 4 -140 -36
-52 -111 -46 -135 10 -47 113 61 220 131 130z"/>
<path d="M4663 1575 c-53 -23 -70 -82 -35 -124 9 -12 48 -31 87 -44 48 -15 71
-28 73 -40 5 -26 -16 -47 -48 -47 -41 0 -60 10 -71 36 -11 30 -69 35 -69 6 0
-68 108 -112 199 -81 38 14 51 35 51 88 0 49 -25 71 -109 95 -63 18 -80 36
-55 61 27 26 94 12 94 -20 0 -10 11 -15 35 -15 38 0 41 6 24 43 -24 52 -107
72 -176 42z"/>
<path d="M1700 1555 c0 -23 4 -25 45 -25 l44 0 3 -127 3 -128 33 -3 32 -3 0
130 0 131 45 0 c41 0 45 2 45 25 l0 25 -125 0 -125 0 0 -25z"/>
<path d="M2430 1424 l0 -157 91 6 c58 4 100 12 115 22 82 53 86 202 9 263 -24
19 -40 22 -121 22 l-94 0 0 -156z m183 75 c11 -14 17 -38 17 -71 0 -65 -30
-98 -90 -98 l-40 0 0 101 0 102 48 -7 c30 -4 53 -13 65 -27z"/>
<path d="M2826 1432 c-31 -81 -56 -151 -56 -155 0 -4 14 -7 31 -7 25 0 32 6
45 35 14 34 15 35 73 35 59 0 59 0 71 -36 11 -31 15 -35 43 -32 39 4 40 -5
-25 171 l-51 137 -37 0 -37 0 -57 -148z m108 35 c32 -77 32 -77 -14 -77 -32 0
-41 3 -37 14 3 8 11 32 18 55 7 23 14 41 15 41 2 0 10 -15 18 -33z"/>
<path d="M3090 1576 c0 -3 25 -46 55 -96 50 -83 55 -96 55 -150 0 -60 0 -60
30 -60 30 0 30 0 30 60 0 54 5 67 55 150 30 50 55 93 55 95 0 3 -15 5 -34 5
-32 0 -38 -5 -68 -55 -18 -30 -35 -55 -38 -55 -3 0 -19 24 -35 53 -27 46 -35
52 -68 55 -20 2 -37 1 -37 -2z"/>
<path d="M3460 1424 l0 -155 28 3 27 3 5 100 5 100 64 -103 c60 -98 65 -103
95 -100 l31 3 3 153 3 152 -35 0 -35 0 -3 -97 -3 -96 -60 96 c-56 91 -62 97
-92 97 l-33 0 0 -156z"/>
<path d="M3830 1425 l0 -155 115 0 115 0 0 30 0 29 -82 3 -83 3 0 35 0 35 73
3 c69 3 72 4 72 27 0 23 -3 24 -72 27 l-73 3 0 30 0 30 83 3 c80 3 82 3 82 27
l0 25 -115 0 -115 0 0 -155z"/>
<path d="M4166 1448 c45 -174 47 -178 83 -178 32 0 33 2 51 85 6 28 16 68 22
90 l11 40 27 -105 26 -105 34 0 34 0 38 140 c21 77 38 146 38 153 0 7 -12 12
-30 12 -32 0 -35 -7 -61 -129 -7 -31 -15 -59 -19 -64 -3 -4 -17 38 -30 93
l-24 100 -32 0 c-36 0 -31 11 -68 -133 -8 -33 -16 -61 -19 -63 -2 -2 -14 41
-26 96 l-23 100 -33 0 -34 0 35 -132z"/>
<path d="M3639 1072 c-26 -13 -35 -24 -37 -48 -4 -40 15 -55 80 -63 40 -4 54
-10 56 -24 9 -44 -60 -64 -107 -31 -35 25 -49 2 -15 -25 30 -23 83 -28 117
-10 29 16 37 28 37 60 0 34 -29 59 -69 59 -18 0 -41 5 -52 10 -16 9 -17 14 -8
31 9 17 18 20 47 17 21 -3 43 -7 51 -9 21 -6 25 18 4 29 -39 20 -70 21 -104 4z"/>
<path d="M2810 1061 c5 -11 10 -60 10 -110 0 -73 3 -91 15 -91 11 0 15 17 17
75 l3 74 60 -74 c86 -106 95 -102 95 35 0 103 -1 110 -20 110 -17 0 -19 -8
-22 -80 l-3 -80 -65 80 c-37 45 -73 80 -83 80 -14 0 -16 -4 -7 -19z"/>
<path d="M3070 970 l0 -110 85 0 c69 0 85 3 85 15 0 12 -15 15 -71 15 l-70 0
3 33 c3 30 6 32 46 35 30 2 42 8 42 19 0 13 -9 15 -45 11 l-45 -6 0 34 0 34
60 0 c47 0 60 3 60 15 0 12 -15 15 -75 15 l-75 0 0 -110z"/>
<path d="M3272 1068 c3 -7 20 -57 37 -110 41 -124 59 -130 88 -31 l20 67 22
-67 c32 -94 46 -88 89 41 19 57 32 106 28 109 -15 15 -34 -12 -56 -82 l-24
-77 -26 78 c-19 55 -32 80 -45 83 -14 2 -16 -1 -11 -15 4 -9 -3 -47 -15 -83
l-22 -66 -14 40 c-33 98 -45 125 -60 125 -8 0 -13 -6 -11 -12z"/>
</g>
</svg>
